<svg width="150" height="150.2" xmlns="http://www.w3.org/2000/svg">

 <g>
  <title>background</title>
  <rect fill="none" id="canvas_background" height="402" width="582" y="-1" x="-1"/>
 </g>
 <g>
  <title>Layer 1</title>
  <path fill="none" d="m0,0.2l150,0l0,150l-150,0l0,-150z" id="Layer_3"/>
  <path fill="#ff742b" id="svg_1" d="m76.3,55.6c-12.4,0 -22.4,10 -22.4,22.4s10,22.4 22.4,22.4c12.4,0 22.4,-10 22.4,-22.4s-10,-22.4 -22.4,-22.4zm15.8,14.2l-14.8,7.7c-0.4,0.2 -1,-0.1 -1,-0.6l0,-16.7c0,-0.4 0.3,-0.6 0.7,-0.6c6.6,0.2 12.3,3.9 15.4,9.3c0.1,0.3 0,0.7 -0.3,0.9z" class="st1"/>
  <path fill="#ff742b" id="svg_2" d="m116.4,17.8l-82.8,0c-8.2,0 -14.8,6.6 -14.8,14.8l0,82.9c0,8.2 6.7,14.8 14.8,14.8l82.8,0c8.2,0 14.8,-6.6 14.8,-14.8l0,-82.9c0,-8.2 -6.6,-14.8 -14.8,-14.8zm-50.8,21.2c0,-2.7 2.2,-4.9 4.9,-4.9l11.4,0c2.7,0 4.9,2.2 4.9,4.9l0,3.9c0,0.4 -0.4,0.7 -0.8,0.6c-3.1,-0.9 -6.3,-1.3 -9.6,-1.3c-3.4,0 -6.7,0.5 -9.9,1.4c-0.4,0.1 -0.9,-0.2 -0.9,-0.6l0,-4zm-21.3,16.2c-1.9,-1.9 -1.9,-5 0,-6.9l2.3,-2.3c1.9,-1.9 5,-1.9 6.9,0l1.9,1.9c0.3,0.3 0.2,0.8 -0.1,1c-1.6,1.1 -3,2.4 -4.4,3.7c-1.4,1.4 -2.6,2.8 -3.7,4.4c-0.3,0.3 -0.7,0.4 -1,0.1l-1.9,-1.9c0.1,0 0,0 0,0zm32,54.5c-17.6,0 -31.8,-14.2 -31.8,-31.8s14.2,-31.8 31.8,-31.8s31.8,14.2 31.8,31.7s-14.2,31.9 -31.8,31.9z" class="st1"/>
 </g>
</svg>